<mxfile host="Electron" modified="2023-08-03T23:36:04.093Z" agent="Mozilla/5.0 (X11; Linux x86_64) AppleWebKit/537.36 (KHTML, like Gecko) draw.io/21.6.5 Chrome/114.0.5735.243 Electron/25.3.1 Safari/537.36" etag="UvbS15lpX3ssJ2fdV6Ob" version="21.6.5" type="device">
  <diagram name="Page-1" id="34_9zhfogBpLNSnkCFlL">
    <mxGraphModel dx="2074" dy="875" grid="1" gridSize="10" guides="1" tooltips="1" connect="1" arrows="1" fold="1" page="1" pageScale="1" pageWidth="1169" pageHeight="827" math="0" shadow="0">
      <root>
        <mxCell id="0" />
        <mxCell id="1" parent="0" />
        <mxCell id="zSlqVeqUC3kNoL_BYtdr-3" style="edgeStyle=orthogonalEdgeStyle;rounded=0;orthogonalLoop=1;jettySize=auto;html=1;entryX=0;entryY=0.5;entryDx=0;entryDy=0;" edge="1" parent="1" source="zSlqVeqUC3kNoL_BYtdr-1" target="zSlqVeqUC3kNoL_BYtdr-2">
          <mxGeometry relative="1" as="geometry" />
        </mxCell>
        <mxCell id="zSlqVeqUC3kNoL_BYtdr-1" value="https://" style="rounded=1;whiteSpace=wrap;html=1;fillColor=#6d8764;fontColor=#ffffff;strokeColor=#3A5431;fontSize=20;fontStyle=0;fontFamily=Noto Mono;fontSource=https%3A%2F%2Ffonts.googleapis.com%2Fcss%3Ffamily%3DNoto%2BMono;" vertex="1" parent="1">
          <mxGeometry x="120" y="200" width="160" height="40" as="geometry" />
        </mxCell>
        <mxCell id="zSlqVeqUC3kNoL_BYtdr-5" style="edgeStyle=orthogonalEdgeStyle;rounded=0;orthogonalLoop=1;jettySize=auto;html=1;entryX=0;entryY=0.5;entryDx=0;entryDy=0;" edge="1" parent="1" source="zSlqVeqUC3kNoL_BYtdr-2" target="zSlqVeqUC3kNoL_BYtdr-4">
          <mxGeometry relative="1" as="geometry" />
        </mxCell>
        <mxCell id="zSlqVeqUC3kNoL_BYtdr-7" style="edgeStyle=orthogonalEdgeStyle;rounded=0;orthogonalLoop=1;jettySize=auto;html=1;entryX=0;entryY=0.5;entryDx=0;entryDy=0;" edge="1" parent="1" source="zSlqVeqUC3kNoL_BYtdr-2" target="zSlqVeqUC3kNoL_BYtdr-6">
          <mxGeometry relative="1" as="geometry" />
        </mxCell>
        <mxCell id="zSlqVeqUC3kNoL_BYtdr-2" value="&amp;lt; Domain &amp;gt;" style="rounded=1;whiteSpace=wrap;html=1;fillColor=#6d8764;fontColor=#ffffff;strokeColor=#3A5431;fontSize=20;fontStyle=0;fontFamily=Noto Mono;fontSource=https%3A%2F%2Ffonts.googleapis.com%2Fcss%3Ffamily%3DNoto%2BMono;" vertex="1" parent="1">
          <mxGeometry x="360" y="200" width="160" height="40" as="geometry" />
        </mxCell>
        <mxCell id="zSlqVeqUC3kNoL_BYtdr-4" value="/" style="rounded=1;whiteSpace=wrap;html=1;fillColor=#6d8764;fontColor=#ffffff;strokeColor=#3A5431;fontSize=20;fontStyle=0;fontFamily=Noto Mono;fontSource=https%3A%2F%2Ffonts.googleapis.com%2Fcss%3Ffamily%3DNoto%2BMono;" vertex="1" parent="1">
          <mxGeometry x="640" y="200" width="40" height="40" as="geometry" />
        </mxCell>
        <mxCell id="zSlqVeqUC3kNoL_BYtdr-9" style="edgeStyle=orthogonalEdgeStyle;rounded=0;orthogonalLoop=1;jettySize=auto;html=1;entryX=0;entryY=0.5;entryDx=0;entryDy=0;" edge="1" parent="1" source="zSlqVeqUC3kNoL_BYtdr-6" target="zSlqVeqUC3kNoL_BYtdr-8">
          <mxGeometry relative="1" as="geometry" />
        </mxCell>
        <mxCell id="zSlqVeqUC3kNoL_BYtdr-6" value="/Chat" style="rounded=1;whiteSpace=wrap;html=1;fillColor=#6d8764;fontColor=#ffffff;strokeColor=#3A5431;fontSize=20;fontStyle=0;fontFamily=Noto Mono;fontSource=https%3A%2F%2Ffonts.googleapis.com%2Fcss%3Ffamily%3DNoto%2BMono;" vertex="1" parent="1">
          <mxGeometry x="560" y="280" width="120" height="40" as="geometry" />
        </mxCell>
        <mxCell id="zSlqVeqUC3kNoL_BYtdr-8" value="/Input" style="rounded=1;whiteSpace=wrap;html=1;fillColor=#6d8764;fontColor=#ffffff;strokeColor=#3A5431;fontSize=20;fontStyle=0;fontFamily=Noto Mono;fontSource=https%3A%2F%2Ffonts.googleapis.com%2Fcss%3Ffamily%3DNoto%2BMono;" vertex="1" parent="1">
          <mxGeometry x="720" y="280" width="120" height="40" as="geometry" />
        </mxCell>
      </root>
    </mxGraphModel>
  </diagram>
</mxfile>
